<svg width="792" height="459" viewBox="0 0 792 459" fill="none" xmlns="http://www.w3.org/2000/svg">
<g clip-path="url(#clip0_1_4)">
<path d="M229.54 7.5V451.13H282.77L176.3 7.5H229.54Z" stroke="#96D28A" stroke-width="15" stroke-miterlimit="10"/>
<path d="M229.54 7.5C352.05 7.5 451.36 106.81 451.36 229.32" stroke="#96D28A" stroke-width="15" stroke-miterlimit="10" stroke-linecap="round"/>
<path d="M229.54 60.74C274.25 60.74 317.129 78.5011 348.744 110.116C380.359 141.731 398.12 184.61 398.12 229.32" stroke="#96D28A" stroke-width="15" stroke-miterlimit="10" stroke-linecap="round"/>
<path d="M229.54 114C260.127 114 289.461 126.149 311.091 147.775C332.721 169.401 344.875 198.733 344.88 229.32" stroke="#96D28A" stroke-width="15" stroke-miterlimit="10" stroke-linecap="round"/>
<path d="M229.32 451.13C106.81 451.13 7.5 351.82 7.5 229.32" stroke="#96D28A" stroke-width="15" stroke-miterlimit="10" stroke-linecap="round"/>
<path d="M229.32 397.46C207.181 397.46 185.259 393.099 164.805 384.627C144.351 376.154 125.767 363.736 110.112 348.081C94.4582 332.425 82.0409 313.84 73.5695 293.386C65.0982 272.932 60.7387 251.009 60.74 228.87" stroke="#96D28A" stroke-width="15" stroke-miterlimit="10" stroke-linecap="round"/>
<path d="M229.32 344.22C198.732 344.215 169.398 332.059 147.772 310.427C126.145 288.795 113.997 259.458 114 228.87" stroke="#96D28A" stroke-width="15" stroke-miterlimit="10" stroke-linecap="round"/>
<path d="M353.85 285.75V323.25C353.876 326.023 353.735 328.794 353.43 331.55C353.124 333.938 352.491 336.274 351.55 338.49C349.97 342.373 347.131 345.613 343.49 347.69C339.313 349.999 334.59 351.139 329.82 350.99C325.657 351.124 321.515 350.338 317.69 348.69C314.372 347.087 311.633 344.495 309.85 341.27C308.741 339.285 307.888 337.169 307.31 334.97C306.675 332.761 306.339 330.478 306.31 328.18C306.223 327.258 306.337 326.328 306.644 325.454C306.95 324.58 307.443 323.783 308.087 323.118C308.732 322.453 309.513 321.935 310.376 321.6C311.24 321.266 312.166 321.122 313.09 321.18C313.892 321.124 314.697 321.243 315.448 321.53C316.199 321.817 316.879 322.264 317.44 322.84C318.601 324.357 319.374 326.136 319.69 328.02C320.105 330.056 320.66 332.06 321.35 334.02C321.911 335.534 322.871 336.868 324.13 337.88C325.741 339.053 327.712 339.623 329.7 339.49C336.107 339.49 339.31 334.787 339.31 325.38V285.78C339.31 282.85 339.96 280.66 341.24 279.19C341.898 278.458 342.71 277.881 343.618 277.501C344.526 277.12 345.507 276.946 346.49 276.99C347.488 276.945 348.484 277.118 349.408 277.498C350.332 277.878 351.162 278.456 351.84 279.19C353.19 280.63 353.85 282.82 353.85 285.75Z" fill="#96D28A"/>
<path d="M406.06 277C413.48 277 419.853 278.507 425.18 281.52C430.432 284.455 434.65 288.939 437.26 294.36C440.123 300.475 441.529 307.17 441.37 313.92C441.433 319.035 440.674 324.126 439.12 329C437.724 333.353 435.428 337.363 432.38 340.77C429.347 344.121 425.583 346.728 421.38 348.39C411.688 351.927 401.055 351.902 391.38 348.32C387.148 346.649 383.355 344.032 380.29 340.67C377.242 337.234 374.955 333.192 373.58 328.81C372.033 323.962 371.267 318.899 371.31 313.81C371.253 308.667 372.054 303.55 373.68 298.67C375.115 294.324 377.453 290.33 380.54 286.95C383.583 283.698 387.319 281.172 391.47 279.56C396.128 277.791 401.078 276.922 406.06 277ZM426.67 313.82C426.778 309.153 425.913 304.514 424.13 300.2C422.657 296.623 420.128 293.581 416.88 291.48C413.63 289.481 409.875 288.457 406.06 288.53C403.309 288.506 400.583 289.061 398.06 290.16C395.611 291.246 393.44 292.874 391.71 294.92C389.795 297.283 388.367 300.002 387.51 302.92C386.459 306.442 385.949 310.104 386 313.78C385.955 317.503 386.471 321.211 387.53 324.78C388.402 327.777 389.883 330.562 391.88 332.96C393.635 335.042 395.836 336.703 398.32 337.82C400.641 338.886 403.151 339.479 405.703 339.564C408.256 339.649 410.8 339.225 413.187 338.317C415.574 337.408 417.756 336.033 419.605 334.272C421.455 332.511 422.935 330.399 423.96 328.06C425.905 323.558 426.831 318.682 426.67 313.78V313.82Z" fill="#96D28A"/>
<path d="M458.87 320.18V285.75C458.87 282.82 459.52 280.63 460.87 279.16C461.52 278.453 462.314 277.894 463.2 277.521C464.085 277.148 465.04 276.971 466 277C466.998 276.955 467.994 277.128 468.918 277.509C469.842 277.889 470.672 278.466 471.35 279.2C472.67 280.67 473.35 282.86 473.35 285.79V321C473.265 324.383 473.717 327.758 474.69 331C475.5 333.574 477.184 335.785 479.45 337.25C481.73 338.73 484.92 339.47 489.02 339.47C494.687 339.47 498.687 337.967 501.02 334.96C503.353 331.953 504.527 327.387 504.54 321.26V285.76C504.54 282.76 505.19 280.59 506.49 279.15C507.149 278.426 507.959 277.856 508.863 277.479C509.767 277.102 510.742 276.929 511.72 276.97C512.706 276.933 513.689 277.109 514.602 277.485C515.515 277.861 516.336 278.429 517.01 279.15C518.36 280.59 519.01 282.8 519.01 285.76V320.19C519.117 324.91 518.569 329.621 517.38 334.19C516.256 337.978 514.119 341.387 511.2 344.05C508.599 346.457 505.498 348.26 502.12 349.33C498.212 350.498 494.148 351.061 490.07 351C485.272 351.091 480.486 350.488 475.86 349.21C472.211 348.212 468.87 346.318 466.14 343.7C463.526 341.024 461.628 337.733 460.62 334.13C459.366 329.589 458.777 324.89 458.87 320.18Z" fill="#96D28A"/>
<path d="M558.64 285.65L586.52 327.84V285.26C586.52 282.5 587.12 280.42 588.3 279.04C588.892 278.352 589.633 277.807 590.466 277.447C591.299 277.087 592.203 276.92 593.11 276.96C594.025 276.915 594.94 277.074 595.786 277.427C596.631 277.78 597.388 278.318 598 279C599.21 280.38 599.81 282.46 599.81 285.22V341.52C599.81 347.813 597.207 350.957 592 350.95C590.802 350.968 589.611 350.775 588.48 350.38C587.395 349.986 586.4 349.381 585.55 348.6C584.603 347.745 583.751 346.789 583.01 345.75C582.23 344.66 581.45 343.54 580.67 342.4L553.47 300.7V342.65C553.47 345.383 552.837 347.45 551.57 348.85C550.938 349.518 550.177 350.049 549.333 350.413C548.489 350.776 547.579 350.964 546.66 350.964C545.741 350.964 544.831 350.776 543.987 350.413C543.143 350.049 542.382 349.518 541.75 348.85C540.517 347.437 539.9 345.38 539.9 342.68V287.46C539.829 285.588 540.093 283.719 540.68 281.94C541.315 280.456 542.39 279.204 543.76 278.35C545.137 277.443 546.751 276.959 548.4 276.96C549.475 276.922 550.545 277.111 551.542 277.516C552.538 277.921 553.437 278.533 554.18 279.31C554.99 280.161 555.71 281.092 556.33 282.09L558.64 285.65Z" fill="#96D28A"/>
<path d="M621.31 342.15V285.75C621.31 282.82 621.97 280.63 623.31 279.16C623.961 278.44 624.76 277.871 625.653 277.491C626.546 277.111 627.51 276.93 628.48 276.96C629.468 276.922 630.453 277.098 631.367 277.474C632.281 277.85 633.104 278.418 633.78 279.14C635.13 280.58 635.78 282.79 635.78 285.75V342.15C635.78 345.11 635.113 347.323 633.78 348.79C633.107 349.517 632.285 350.089 631.37 350.469C630.456 350.849 629.47 351.026 628.48 350.99C627.511 351.017 626.548 350.831 625.658 350.446C624.768 350.061 623.974 349.485 623.33 348.76C621.983 347.28 621.31 345.077 621.31 342.15Z" fill="#96D28A"/>
<path d="M360.61 395.91H344.79V447.91C344.79 450.91 344.123 453.133 342.79 454.58C342.136 455.294 341.335 455.857 340.443 456.232C339.55 456.606 338.587 456.783 337.62 456.75C336.638 456.784 335.66 456.606 334.754 456.226C333.847 455.846 333.034 455.274 332.37 454.55C331.02 453.09 330.37 450.87 330.37 447.91V395.91H314.51C312.04 395.91 310.2 395.37 308.99 394.27C308.394 393.724 307.924 393.055 307.613 392.309C307.302 391.563 307.158 390.758 307.19 389.95C307.15 389.124 307.299 388.299 307.625 387.539C307.95 386.778 308.445 386.101 309.07 385.56C310.63 384.385 312.562 383.813 314.51 383.95H360.61C363.11 383.95 364.98 384.5 366.2 385.61C366.805 386.164 367.28 386.845 367.591 387.604C367.902 388.363 368.042 389.181 368 390C368.031 390.813 367.88 391.623 367.558 392.37C367.236 393.117 366.752 393.784 366.14 394.32C364.93 395.37 363.08 395.91 360.61 395.91Z" fill="#96D28A"/>
<path d="M380.21 447.91V391.52C380.21 388.59 380.87 386.39 382.21 384.92C382.861 384.202 383.661 383.634 384.554 383.255C385.447 382.877 386.411 382.698 387.38 382.73C388.367 382.69 389.352 382.864 390.266 383.238C391.181 383.613 392.004 384.179 392.68 384.9C394.03 386.35 394.68 388.55 394.68 391.52V447.91C394.68 450.91 394 453.09 392.68 454.55C392.008 455.278 391.186 455.852 390.271 456.232C389.356 456.612 388.37 456.788 387.38 456.75C386.412 456.776 385.45 456.591 384.56 456.208C383.671 455.824 382.876 455.252 382.23 454.53C380.883 453.05 380.21 450.843 380.21 447.91Z" fill="#96D28A"/>
<path d="M438.09 444.74L426.62 399.13V448.55C426.62 451.28 426 453.33 424.78 454.7C424.154 455.346 423.405 455.86 422.577 456.21C421.749 456.561 420.859 456.742 419.96 456.742C419.061 456.742 418.171 456.561 417.343 456.21C416.515 455.86 415.766 455.346 415.14 454.7C413.9 453.35 413.29 451.29 413.29 448.53V391.91C413.29 388.777 414.103 386.667 415.73 385.58C417.717 384.396 420.01 383.828 422.32 383.95H426.81C428.798 383.849 430.788 384.096 432.69 384.68C433.294 384.918 433.845 385.275 434.31 385.728C434.775 386.181 435.146 386.722 435.4 387.32C436.233 389.329 436.902 391.403 437.4 393.52L447.8 432.73L458.2 393.52C458.699 391.403 459.368 389.33 460.2 387.32C460.456 386.723 460.827 386.183 461.292 385.73C461.757 385.277 462.307 384.92 462.91 384.68C464.813 384.096 466.802 383.849 468.79 383.95H473.28C475.593 383.829 477.889 384.396 479.88 385.58C481.5 386.67 482.32 388.78 482.32 391.91V448.55C482.32 451.277 481.71 453.327 480.49 454.7C479.873 455.382 479.113 455.919 478.264 456.274C477.415 456.628 476.499 456.791 475.58 456.75C474.688 456.775 473.802 456.605 472.983 456.25C472.164 455.896 471.432 455.367 470.84 454.7C469.607 453.327 468.99 451.277 468.99 448.55V399.13L457.51 444.74C456.763 447.7 456.153 449.873 455.68 451.26C455.152 452.725 454.252 454.027 453.07 455.04C451.591 456.252 449.709 456.862 447.8 456.75C446.387 456.804 444.986 456.468 443.751 455.778C442.516 455.088 441.495 454.072 440.8 452.84C440.122 451.653 439.605 450.382 439.26 449.06C438.86 447.68 438.48 446.24 438.09 444.74Z" fill="#96D28A"/>
<path d="M531.71 382.73C539.137 382.73 545.51 384.233 550.83 387.24C556.08 390.18 560.301 394.662 562.92 400.08C565.773 406.198 567.176 412.891 567.02 419.64C567.083 424.758 566.323 429.853 564.77 434.73C563.363 439.084 561.056 443.094 558 446.5C554.969 449.851 551.204 452.455 547 454.11C537.308 457.647 526.675 457.622 517 454.04C512.77 452.37 508.978 449.757 505.91 446.4C502.861 442.961 500.575 438.916 499.2 434.53C497.653 429.682 496.887 424.619 496.93 419.53C496.873 414.39 497.674 409.276 499.3 404.4C500.733 400.053 503.071 396.058 506.16 392.68C509.201 389.419 512.942 386.889 517.1 385.28C521.764 383.511 526.722 382.646 531.71 382.73ZM552.32 419.54C552.428 414.873 551.563 410.234 549.78 405.92C548.307 402.343 545.778 399.301 542.53 397.2C539.28 395.201 535.525 394.177 531.71 394.25C528.958 394.229 526.232 394.788 523.71 395.89C521.259 396.973 519.087 398.601 517.36 400.65C515.441 403.009 514.016 405.729 513.17 408.65C512.1 412.186 511.58 415.866 511.63 419.56C511.585 423.283 512.104 426.992 513.17 430.56C514.036 433.557 515.514 436.342 517.51 438.74C519.272 440.819 521.476 442.479 523.96 443.6C526.877 444.836 530.043 445.373 533.205 445.168C536.367 444.963 539.437 444.022 542.17 442.42C545.452 440.369 548.038 437.375 549.59 433.83C551.545 429.327 552.478 424.447 552.32 419.54Z" fill="#96D28A"/>
<path d="M601.32 391.42L629.2 433.61V391C629.2 388.23 629.79 386.16 630.98 384.77C631.573 384.084 632.314 383.541 633.147 383.183C633.98 382.824 634.884 382.659 635.79 382.7C636.714 382.655 637.637 382.818 638.49 383.176C639.343 383.534 640.105 384.079 640.72 384.77C641.92 386.16 642.53 388.23 642.53 391V447.3C642.53 453.58 639.923 456.72 634.71 456.72C633.517 456.736 632.329 456.546 631.2 456.16C630.119 455.758 629.125 455.154 628.27 454.38C627.322 453.521 626.471 452.562 625.73 451.52C624.95 450.43 624.17 449.31 623.39 448.18L596.19 406.48V448.42C596.19 451.15 595.55 453.22 594.29 454.62C593.657 455.286 592.896 455.817 592.052 456.179C591.208 456.542 590.299 456.729 589.38 456.729C588.461 456.729 587.552 456.542 586.708 456.179C585.864 455.817 585.102 455.286 584.47 454.62C583.23 453.2 582.62 451.14 582.62 448.44V393.22C582.548 391.351 582.812 389.485 583.4 387.71C584.028 386.225 585.101 384.971 586.47 384.12C587.845 383.208 589.46 382.725 591.11 382.73C592.259 382.7 593.401 382.915 594.46 383.36C595.373 383.772 596.201 384.352 596.9 385.07C597.705 385.925 598.425 386.856 599.05 387.85C599.78 389 600.54 390.18 601.32 391.42Z" fill="#96D28A"/>
<path d="M708.56 395.13H675.9V412.71H706C707.779 412.568 709.545 413.1 710.95 414.2C711.493 414.697 711.92 415.305 712.204 415.984C712.487 416.663 712.619 417.395 712.59 418.13C712.618 418.872 712.488 419.612 712.211 420.301C711.934 420.991 711.514 421.614 710.98 422.13C709.574 423.267 707.782 423.815 705.98 423.66H675.9V444H709.69C711.544 443.864 713.381 444.428 714.84 445.58C715.416 446.119 715.868 446.776 716.167 447.506C716.466 448.236 716.603 449.022 716.57 449.81C716.596 450.581 716.454 451.348 716.156 452.059C715.857 452.77 715.408 453.409 714.84 453.93C713.385 455.089 711.546 455.657 709.69 455.52H670.28C667.13 455.52 664.85 454.82 663.47 453.42C662.09 452.02 661.4 449.76 661.4 446.63V392.83C661.338 391.084 661.652 389.345 662.32 387.73C662.904 386.446 663.939 385.42 665.23 384.85C666.815 384.204 668.519 383.897 670.23 383.95H708.51C710.362 383.801 712.203 384.35 713.67 385.49C714.223 385.996 714.659 386.615 714.949 387.306C715.239 387.996 715.376 388.741 715.35 389.49C715.383 390.251 715.25 391.011 714.959 391.715C714.669 392.42 714.229 393.053 713.67 393.57C712.219 394.705 710.398 395.261 708.56 395.13Z" fill="#96D28A"/>
<path d="M750 391.42L777.88 433.61V391C777.88 388.23 778.48 386.16 779.67 384.77C780.262 384.085 781.001 383.543 781.833 383.185C782.664 382.826 783.566 382.661 784.47 382.7C785.396 382.655 786.32 382.818 787.174 383.176C788.029 383.534 788.793 384.079 789.41 384.77C790.61 386.16 791.21 388.23 791.21 391V447.3C791.21 453.58 788.607 456.72 783.4 456.72C782.207 456.736 781.019 456.546 779.89 456.16C778.808 455.76 777.814 455.156 776.96 454.38C776.01 453.524 775.158 452.565 774.42 451.52C773.64 450.43 772.85 449.31 772.07 448.18L744.88 406.48V448.42C744.88 451.153 744.243 453.22 742.97 454.62C742.359 455.304 741.605 455.847 740.762 456.21C739.919 456.572 739.007 456.746 738.09 456.72C737.162 456.756 736.238 456.585 735.385 456.218C734.532 455.851 733.772 455.298 733.16 454.6C731.808 452.835 731.147 450.638 731.3 448.42V393.22C731.228 391.351 731.492 389.485 732.08 387.71C732.716 386.227 733.791 384.974 735.16 384.12C736.535 383.208 738.15 382.725 739.8 382.73C740.945 382.7 742.084 382.915 743.14 383.36C744.054 383.77 744.882 384.351 745.58 385.07C746.388 385.923 747.108 386.854 747.73 387.85C748.45 389 749.21 390.18 750 391.42Z" fill="#96D28A"/>
</g>
<defs>
<clipPath id="clip0_1_4">
<rect width="791.2" height="458.63" fill="white"/>
</clipPath>
</defs>
</svg>
