<svg xmlns="http://www.w3.org/2000/svg" viewBox="0 0 791.2 458.63"><defs><style>.cls-1,.cls-2{fill:none;stroke:#000;stroke-miterlimit:10;stroke-width:15px;}.cls-2{stroke-linecap:round;}</style></defs><title>LogoTekstilläBlackPath</title><g id="Layer_2" data-name="Layer 2"><g id="Layer_5" data-name="Layer 5"><polygon class="cls-1" points="229.54 7.5 229.54 451.13 282.77 451.13 176.3 7.5 229.54 7.5"/><path class="cls-2" d="M229.54,7.5c122.51,0,221.82,99.31,221.82,221.82"/><path class="cls-2" d="M229.54,60.74A168.58,168.58,0,0,1,398.12,229.32"/><path class="cls-2" d="M229.54,114A115.34,115.34,0,0,1,344.88,229.32"/><path class="cls-2" d="M229.32,451.13C106.81,451.13,7.5,351.82,7.5,229.32"/><path class="cls-2" d="M229.32,397.46A168.58,168.58,0,0,1,60.74,228.87"/><path class="cls-2" d="M229.32,344.22A115.34,115.34,0,0,1,114,228.87"/><path d="M353.85,285.75v37.5a69.47,69.47,0,0,1-.42,8.3,26.32,26.32,0,0,1-1.88,6.94,18.71,18.71,0,0,1-8.06,9.2,26.54,26.54,0,0,1-13.67,3.3,28.35,28.35,0,0,1-12.13-2.3,17.81,17.81,0,0,1-7.84-7.42,27,27,0,0,1-2.54-6.3,25.75,25.75,0,0,1-1-6.79,6.41,6.41,0,0,1,6.78-7,5.53,5.53,0,0,1,4.35,1.66,11.71,11.71,0,0,1,2.25,5.18,45.29,45.29,0,0,0,1.66,6,8.93,8.93,0,0,0,2.78,3.86,8.5,8.5,0,0,0,5.57,1.61q9.61,0,9.61-14.11v-39.6c0-2.93.65-5.12,1.93-6.59a6.66,6.66,0,0,1,5.25-2.2,6.86,6.86,0,0,1,5.35,2.2C353.19,280.63,353.85,282.82,353.85,285.75Z"/><path d="M406.06,277q11.13,0,19.12,4.52a29.24,29.24,0,0,1,12.08,12.84,43.7,43.7,0,0,1,4.11,19.56A47.7,47.7,0,0,1,439.12,329a32.57,32.57,0,0,1-6.74,11.77,29.43,29.43,0,0,1-11,7.62,43.48,43.48,0,0,1-30-.07,29.84,29.84,0,0,1-11.09-7.65,32.55,32.55,0,0,1-6.71-11.86,48,48,0,0,1-2.27-15,46.27,46.27,0,0,1,2.37-15.14,32.48,32.48,0,0,1,6.86-11.72,29.69,29.69,0,0,1,10.93-7.39A39.37,39.37,0,0,1,406.06,277Zm20.61,36.82a33.61,33.61,0,0,0-2.54-13.62,19,19,0,0,0-7.25-8.72,19.93,19.93,0,0,0-10.82-2.95,19.61,19.61,0,0,0-8,1.63,17.72,17.72,0,0,0-6.35,4.76,23,23,0,0,0-4.2,8A36.22,36.22,0,0,0,386,313.78a37.08,37.08,0,0,0,1.53,11,22.68,22.68,0,0,0,4.35,8.18,18.16,18.16,0,0,0,6.44,4.86,19.23,19.23,0,0,0,25.64-9.76A33.26,33.26,0,0,0,426.67,313.78Z"/><path d="M458.87,320.18V285.75c0-2.93.65-5.12,2-6.59A6.69,6.69,0,0,1,466,277a6.86,6.86,0,0,1,5.35,2.2c1.32,1.47,2,3.66,2,6.59V321a32,32,0,0,0,1.34,10,11.58,11.58,0,0,0,4.76,6.25q3.42,2.22,9.57,2.22,8.5,0,12-4.51t3.52-13.7v-35.5c0-3,.65-5.17,1.95-6.61a6.69,6.69,0,0,1,5.23-2.18,6.89,6.89,0,0,1,5.29,2.18c1.35,1.44,2,3.65,2,6.61v34.43a51,51,0,0,1-1.63,14,21.7,21.7,0,0,1-6.18,9.86,24.08,24.08,0,0,1-9.08,5.28A40,40,0,0,1,490.07,351a49.84,49.84,0,0,1-14.21-1.79,22.69,22.69,0,0,1-9.72-5.51,22.29,22.29,0,0,1-5.52-9.57A48.78,48.78,0,0,1,458.87,320.18Z"/><path d="M558.64,285.65l27.88,42.19V285.26c0-2.76.6-4.84,1.78-6.22a6,6,0,0,1,4.81-2.08A6.16,6.16,0,0,1,598,279c1.21,1.38,1.81,3.46,1.81,6.22v56.3q0,9.44-7.81,9.43a10.23,10.23,0,0,1-3.52-.57,8.74,8.74,0,0,1-2.93-1.78,17.65,17.65,0,0,1-2.54-2.85c-.78-1.09-1.56-2.21-2.34-3.35l-27.2-41.7v41.95q0,4.1-1.9,6.2a6.76,6.76,0,0,1-9.82,0q-1.85-2.12-1.85-6.17V287.46a15.71,15.71,0,0,1,.78-5.52,7.89,7.89,0,0,1,3.08-3.59,8.43,8.43,0,0,1,4.64-1.39,7.62,7.62,0,0,1,5.78,2.35,17.15,17.15,0,0,1,2.15,2.78Z"/><path d="M621.31,342.15v-56.4c0-2.93.66-5.12,2-6.59a6.69,6.69,0,0,1,5.17-2.2,6.9,6.9,0,0,1,5.3,2.18c1.35,1.44,2,3.65,2,6.61v56.4q0,4.44-2,6.64a6.88,6.88,0,0,1-5.3,2.2,6.64,6.64,0,0,1-5.15-2.23Q621.31,346.54,621.31,342.15Z"/><path d="M360.61,395.91H344.79v52q0,4.5-2,6.67a6.7,6.7,0,0,1-5.17,2.17,6.8,6.8,0,0,1-5.25-2.2c-1.35-1.46-2-3.68-2-6.64v-52H314.51c-2.47,0-4.31-.54-5.52-1.64a5.56,5.56,0,0,1-1.8-4.32,5.46,5.46,0,0,1,1.88-4.39,8.1,8.1,0,0,1,5.44-1.61h46.1c2.5,0,4.37.55,5.59,1.66A5.57,5.57,0,0,1,368,390a5.47,5.47,0,0,1-1.86,4.32C364.93,395.37,363.08,395.91,360.61,395.91Z"/><path d="M380.21,447.91V391.52c0-2.93.66-5.13,2-6.6a6.68,6.68,0,0,1,5.17-2.19,6.89,6.89,0,0,1,5.3,2.17c1.35,1.45,2,3.65,2,6.62v56.39c0,3-.68,5.18-2,6.64a6.85,6.85,0,0,1-5.3,2.2,6.67,6.67,0,0,1-5.15-2.22Q380.21,452.31,380.21,447.91Z"/><path d="M438.09,444.74l-11.47-45.61v49.42c0,2.73-.62,4.78-1.84,6.15a6.71,6.71,0,0,1-9.64,0c-1.24-1.35-1.85-3.41-1.85-6.17V391.91q0-4.7,2.44-6.33a11.67,11.67,0,0,1,6.59-1.63h4.49a17.08,17.08,0,0,1,5.88.73,4.9,4.9,0,0,1,2.71,2.64,40.21,40.21,0,0,1,2,6.2l10.4,39.21,10.4-39.21a40.44,40.44,0,0,1,2-6.2,4.93,4.93,0,0,1,2.71-2.64,17.08,17.08,0,0,1,5.88-.73h4.49a11.72,11.72,0,0,1,6.6,1.63c1.62,1.09,2.44,3.2,2.44,6.33v56.64q0,4.09-1.83,6.15a6.25,6.25,0,0,1-4.91,2.05,6.11,6.11,0,0,1-4.74-2.05q-1.85-2.06-1.85-6.15V399.13l-11.48,45.61q-1.12,4.44-1.83,6.52a9,9,0,0,1-2.61,3.78,7.61,7.61,0,0,1-5.27,1.71,7.7,7.7,0,0,1-7-3.91,15.52,15.52,0,0,1-1.54-3.78C438.86,447.68,438.48,446.24,438.09,444.74Z"/><path d="M531.71,382.73q11.14,0,19.12,4.51a29.37,29.37,0,0,1,12.09,12.84,43.87,43.87,0,0,1,4.1,19.56,47.81,47.81,0,0,1-2.25,15.09A32.66,32.66,0,0,1,558,446.5a29.3,29.3,0,0,1-11,7.61,43.48,43.48,0,0,1-30-.07,29.9,29.9,0,0,1-11.09-7.64,32.59,32.59,0,0,1-6.71-11.87,48,48,0,0,1-2.27-15,46.21,46.21,0,0,1,2.37-15.13,32.4,32.4,0,0,1,6.86-11.72,29.54,29.54,0,0,1,10.94-7.4A39.32,39.32,0,0,1,531.71,382.73Zm20.61,36.81a33.61,33.61,0,0,0-2.54-13.62,19,19,0,0,0-7.25-8.72,19.93,19.93,0,0,0-10.82-2.95,19.61,19.61,0,0,0-8,1.64,17.6,17.6,0,0,0-6.35,4.76,22.66,22.66,0,0,0-4.19,8,36,36,0,0,0-1.54,10.91,36.87,36.87,0,0,0,1.54,11,22.59,22.59,0,0,0,4.34,8.18,18.34,18.34,0,0,0,6.45,4.86,20.33,20.33,0,0,0,18.21-1.18,19.21,19.21,0,0,0,7.42-8.59A33.2,33.2,0,0,0,552.32,419.54Z"/><path d="M601.32,391.42l27.88,42.19V391c0-2.77.59-4.84,1.78-6.23a6,6,0,0,1,4.81-2.07,6.2,6.2,0,0,1,4.93,2.07c1.2,1.39,1.81,3.46,1.81,6.23v56.3q0,9.42-7.82,9.42a10.42,10.42,0,0,1-3.51-.56,9.08,9.08,0,0,1-2.93-1.78,17.68,17.68,0,0,1-2.54-2.86c-.78-1.09-1.56-2.21-2.34-3.34l-27.2-41.7v41.94c0,2.73-.64,4.8-1.9,6.2a6.77,6.77,0,0,1-9.82,0c-1.24-1.42-1.85-3.48-1.85-6.18V393.22a15.61,15.61,0,0,1,.78-5.51,7.81,7.81,0,0,1,3.07-3.59,8.35,8.35,0,0,1,4.64-1.39,8.11,8.11,0,0,1,3.35.63,8,8,0,0,1,2.44,1.71,18.21,18.21,0,0,1,2.15,2.78C599.78,389,600.54,390.18,601.32,391.42Z"/><path d="M708.56,395.13H675.9v17.58H706a7.11,7.11,0,0,1,4.95,1.49,5.06,5.06,0,0,1,1.64,3.93,5.29,5.29,0,0,1-1.61,4,7,7,0,0,1-5,1.53H675.9V444h33.79a7.43,7.43,0,0,1,5.15,1.58,5.48,5.48,0,0,1,1.73,4.23,5.35,5.35,0,0,1-1.73,4.12,7.39,7.39,0,0,1-5.15,1.59H670.28c-3.15,0-5.43-.7-6.81-2.1s-2.07-3.66-2.07-6.79V392.83a12.21,12.21,0,0,1,.92-5.1,5.75,5.75,0,0,1,2.91-2.88,12.24,12.24,0,0,1,5-.9h38.28a7.44,7.44,0,0,1,5.16,1.54,5.18,5.18,0,0,1,1.68,4,5.25,5.25,0,0,1-1.68,4.08A7.44,7.44,0,0,1,708.56,395.13Z"/><path d="M750,391.42l27.88,42.19V391c0-2.77.6-4.84,1.79-6.23a6,6,0,0,1,4.8-2.07,6.22,6.22,0,0,1,4.94,2.07c1.2,1.39,1.8,3.46,1.8,6.23v56.3q0,9.42-7.81,9.42a10.42,10.42,0,0,1-3.51-.56,9,9,0,0,1-2.93-1.78,17.22,17.22,0,0,1-2.54-2.86c-.78-1.09-1.57-2.21-2.35-3.34l-27.19-41.7v41.94q0,4.1-1.91,6.2a6.3,6.3,0,0,1-4.88,2.1,6.23,6.23,0,0,1-4.93-2.12,9.13,9.13,0,0,1-1.86-6.18V393.22a15.61,15.61,0,0,1,.78-5.51,7.9,7.9,0,0,1,3.08-3.59,8.35,8.35,0,0,1,4.64-1.39,8.06,8.06,0,0,1,3.34.63,7.91,7.91,0,0,1,2.44,1.71,17.6,17.6,0,0,1,2.15,2.78C748.45,389,749.21,390.18,750,391.42Z"/></g></g></svg>